<?xml version="1.0" encoding="iso-8859-1"?>
<!-- Generator: Adobe Illustrator 16.0.0, SVG Export Plug-In . SVG Version: 6.00 Build 0)  -->
<!DOCTYPE svg PUBLIC "-//W3C//DTD SVG 1.1//EN" "http://www.w3.org/Graphics/SVG/1.1/DTD/svg11.dtd">
<svg version="1.1" id="Capa_1" xmlns="http://www.w3.org/2000/svg" xmlns:xlink="http://www.w3.org/1999/xlink" x="0px" y="0px"
	 width="532.223px" height="532.223px" viewBox="0 0 532.223 532.223" style="enable-background:new 0 0 532.223 532.223;"
	 xml:space="preserve">
<g>
	<g>
		<path d="M523.721,381.977c-22.645,5.202-44.982,10.404-67.626,15.301c4.283-23.562,2.447-47.124-1.53-70.381
			c-0.918-5.508-9.18-5.813-11.628-1.529c-9.486,16.218-18.973,32.436-32.437,45.899c-10.71,10.71-23.562,19.278-34.578,29.683
			c-24.479,23.256-10.403,33.659-10.71,62.424c-54.468,32.13-118.728,43.758-183.906,25.092
			C77.572,458.477,6.274,359.639,14.23,251.008c8.262-108.936,98.226-194.922,203.184-213.894
			c60.282-11.016,125.154-3.366,171.666,39.168c35.496,32.742,55.387,73.134,69.156,117.504
			c-10.71-13.771-24.786-24.786-39.168-34.578c-3.979-2.754-10.098,1.836-8.262,6.426c17.136,46.818,37.025,92.106,60.588,136.17
			c1.836,3.672,8.262,3.979,10.098,0c22.95-49.572,34.884-103.123,26.316-157.59c-0.918-6.12-10.099-5.202-11.628,0
			c-5.509,21.114-14.382,40.086-26.316,58.14c2.448-50.49-29.682-97.92-64.872-132.498c-40.698-39.474-93.023-52.326-148.716-49.878
			C136.324,24.875,23.41,107.495,3.214,229.588c-18.666,112.302,45.594,223.075,150.552,265.302
			c74.052,29.683,156.06,20.809,221.85-18.359c5.814,4.59,13.771,6.426,20.809,8.567c10.098,3.061,20.195,6.12,30.6,8.874
			c1.224,1.225,3.06,1.836,4.284,0.612c37.332-28.152,69.462-65.79,99.144-101.592C534.736,388.403,530.759,380.447,523.721,381.977
			z M464.662,219.185c0.307,1.53,2.754,1.53,3.061,0c0.306-1.224,0.306-2.142,0.611-3.366c2.448,1.53,6.12,1.224,8.263-1.836
			c8.262-11.628,14.688-23.562,20.195-36.108c-0.611,36.72-8.262,71.91-21.42,106.794c-17.748-33.661-33.66-68.238-47.124-103.734
			c12.24,10.404,23.256,21.726,35.19,32.742C463.744,215.512,464.356,217.349,464.662,219.185z M438.958,355.354
			c1.836-2.754,3.979-5.201,5.814-7.955c1.53,16.218,0.918,32.13,0.306,48.653c-1.224,0.307-2.448,0.918-3.366,1.836
			c-1.836,2.143-3.365,3.979-5.201,5.814C438.347,388.097,440.794,370.655,438.958,355.354z M421.517,377.081
			C421.517,376.774,421.517,376.774,421.517,377.081c3.06-3.672,6.12-7.344,9.18-11.017c-1.53,14.383-0.306,29.683,0.306,43.452
			c-4.59,4.896-9.18,9.792-14.075,14.382C420.904,408.905,423.965,391.769,421.517,377.081z M404.074,413.801
			c0.612-7.649,2.448-14.994,2.448-22.644c2.448-2.143,4.896-4.59,7.344-6.732c-2.448,14.688-2.448,30.601-2.754,44.982
			c-2.754,2.447-5.508,4.896-8.568,7.344C402.851,429.407,403.156,421.451,404.074,413.801z M397.648,398.807
			c-2.448,13.464-1.224,28.765,0.306,41.311c0,0.306,0.307,0.306,0.307,0.611c-3.061,2.448-6.427,5.202-9.792,7.65
			c0.611-13.464,1.529-28.152-1.225-41.004C390.61,404.314,394.282,401.255,397.648,398.807z M371.332,459.701
			c0.307-9.181-1.224-18.055,0-26.929c0.918-7.037,3.979-12.852,8.263-17.748c0,11.935,1.836,24.48,3.672,36.414
			C379.288,454.193,375.616,457.253,371.332,459.701z M432.227,482.957c-0.307-0.306-0.612-0.612-1.225-0.612
			c-10.403-2.754-21.113-5.202-31.518-7.344c-5.202-1.224-10.404-2.754-15.606-3.061c6.12-3.978,12.24-8.262,17.748-12.852
			c13.771,3.979,27.847,7.65,41.923,10.404C439.876,474.083,435.898,478.367,432.227,482.957z M447.832,464.291
			c-13.77-3.672-28.151-6.12-42.533-8.568c3.365-2.754,6.731-5.813,10.098-8.567c7.038,1.529,13.77,3.06,20.808,4.59
			c6.427,1.529,12.853,3.366,19.278,3.978C453.034,458.477,450.28,461.537,447.832,464.291z M460.99,449.909
			c-11.934-4.896-26.316-6.12-39.78-7.65c3.673-3.366,7.038-7.038,10.404-10.71c13.158,2.754,26.928,6.12,40.086,7.038
			C468.028,442.259,464.356,445.931,460.99,449.909z M435.898,426.653c1.53-1.836,3.06-3.979,4.896-5.814
			c0.307,0.306,0.612,0.306,0.918,0.306c10.099,0,20.196,0.307,29.988,0c5.202,0,10.404,0.307,15.606,0
			c-3.366,3.366-6.426,7.038-9.792,10.404C464.356,428.489,449.975,427.571,435.898,426.653z M494.65,413.495
			c-7.65-0.918-15.3,0.611-22.95,0.918c-9.18,0.611-18.666,1.53-27.846,2.448c1.53-1.837,3.366-3.979,4.896-5.814
			c1.53,0.918,3.061,1.224,5.202,0.918c17.748-3.978,35.496-7.956,52.938-11.934C502.912,404.621,498.628,408.905,494.65,413.495z"
			/>
		<path d="M156.826,349.235c-7.956-4.591-15.3-9.181-22.95-14.383c-0.612-0.611-1.53,0.612-0.918,1.225
			c7.038,5.813,14.688,10.71,22.95,14.688C157.132,351.071,157.744,349.847,156.826,349.235z"/>
		<path d="M155.296,341.891c-7.038-5.202-14.382-10.098-21.726-14.994c-0.918-0.611-1.53,0.919-0.918,1.53
			c7.038,5.202,14.076,10.71,21.726,15.3C155.603,344.339,156.214,342.809,155.296,341.891z"/>
		<path d="M157.132,332.711c-0.306-0.306-0.918-0.306-1.224-0.306h-0.306l0,0c-1.53-1.225-3.672-2.754-3.978-3.061
			c-1.836-1.224-3.978-2.448-5.814-3.978c-3.978-2.448-7.956-5.202-11.934-7.65c-0.612-0.306-1.224,0.612-0.612,0.918
			c4.59,3.366,9.18,6.732,13.77,9.792c2.448,1.836,6.732,6.426,10.098,5.814c0.306,0,0.612-0.307,0.612-0.612
			C157.744,333.629,157.438,333.323,157.132,332.711z"/>
		<path d="M155.603,323.837c-7.65-6.732-17.442-11.628-26.01-17.442c-1.224-0.918-2.448,1.225-1.224,2.143
			c8.262,5.813,16.524,13.158,26.01,16.83C155.296,325.979,156.521,324.755,155.603,323.837z"/>
		<path d="M154.378,317.104c-8.874-6.119-18.666-10.71-27.846-15.605c-0.918-0.612-2.142,0.918-0.918,1.53
			c9.486,4.896,18.36,10.71,27.846,15.605C154.685,319.553,155.603,317.717,154.378,317.104z"/>
		<path d="M151.012,304.559c-8.874-4.896-17.748-9.792-25.704-15.605c-1.224-0.918-2.754,1.224-1.53,2.142
			c7.956,6.732,16.83,12.24,26.622,15.912C151.318,307.007,152.236,305.171,151.012,304.559z"/>
		<path d="M153.46,296.909c-1.836-2.143-3.672-3.979-6.12-5.814c-0.918-0.611-1.836,0.307-1.224,1.225
			c-6.12-3.979-12.24-7.65-18.054-12.24c-1.224-1.225-3.366,0.918-1.836,1.836c7.956,6.426,16.524,12.852,25.704,17.136
			C153.154,299.663,154.378,298.133,153.46,296.909z"/>
		<path d="M149.789,284.057c-8.568-4.896-16.524-9.485-23.868-16.218c-0.918-0.918-2.754,0.612-1.53,1.53
			c7.038,6.731,15.3,13.158,24.48,16.83C150.094,286.811,151.012,284.669,149.789,284.057z"/>
		<path d="M177.634,269.062c-4.896-2.754-10.404-4.59-15.606-7.344c-3.672-1.836-7.344-3.978-11.628-4.896
			c-7.344-6.426-16.524-11.322-24.48-16.83c-1.224-0.918-2.754,1.224-1.224,2.142c7.344,5.508,14.994,11.934,22.95,15.912
			c0,0.612,0.306,1.224,0.918,1.224c9.792,1.53,18.054,9.486,27.846,12.24C178.247,272.429,179.165,269.98,177.634,269.062z"/>
		<path d="M180.388,259.271C180.388,259.577,180.388,259.577,180.388,259.271c-8.874-5.202-17.748-9.792-26.316-15.606
			c-0.612-0.306-1.224-0.306-1.53,0.306c0-0.306,0-0.612-0.306-0.918c-6.12-4.896-12.852-8.262-18.666-13.158
			c-1.53-1.224-3.366,0.918-2.142,2.142c5.508,5.202,12.24,11.016,19.584,13.77c0.612,0.306,1.224,0,1.53-0.612
			c0,0.306,0,0.918,0.612,1.224c8.568,6.12,17.748,12.24,27.234,16.83c0.918,0.306,2.142,0.306,2.448-0.918
			c0-0.612,0.306-1.224,0.306-1.836C182.836,258.964,181,258.046,180.388,259.271z"/>
		<path d="M153.767,237.851c-0.306-0.306-0.612-0.918-0.918-1.224c-0.306-0.306-0.918-0.612-1.53-0.306
			c-7.65-5.202-15.912-10.098-23.562-14.994c-1.836-1.224-3.366,1.53-1.53,2.754c8.568,5.508,16.83,11.628,25.398,16.524
			C153.46,241.829,154.99,239.38,153.767,237.851z"/>
		<path d="M159.274,233.26c-8.262-6.732-17.442-12.546-26.01-18.666c-1.53-1.224-3.366,1.53-1.53,2.754
			c8.568,6.12,16.83,12.852,25.398,18.666C158.662,236.933,160.804,234.484,159.274,233.26z"/>
		<path d="M149.176,247.03c-8.874-2.754-14.688-11.016-23.868-13.464c-1.53-0.306-2.142,1.836-0.612,2.142
			c9.18,2.448,14.382,11.628,23.868,13.464C150.094,249.785,150.707,247.643,149.176,247.03z"/>
		<path d="M155.603,220.408c-6.12-4.896-12.546-9.486-18.972-13.77c-0.918-0.612-1.836,0.612-0.918,1.224
			c6.12,4.896,12.24,9.792,18.666,14.382C155.296,222.55,156.826,221.021,155.603,220.408z"/>
		<path d="M157.132,213.064c-6.732-3.672-13.158-7.038-18.666-12.546c-1.224-1.224-3.06,0.612-1.836,1.836
			c5.202,5.508,12.24,11.016,19.584,12.852C157.438,215.818,158.356,213.676,157.132,213.064z"/>
		<path d="M158.968,205.72c-5.202-4.59-12.24-7.956-18.054-11.322c-1.836-1.224-3.672,1.836-1.836,3.06
			c6.12,3.672,11.934,8.262,18.666,10.71C158.968,208.475,159.886,206.638,158.968,205.72z"/>
		<path d="M177.94,365.453c-7.65-3.979-14.688-7.956-21.42-13.158c-0.918-0.918-2.448,0.918-1.53,1.836
			c6.426,5.814,13.77,10.404,22.032,13.464C178.247,367.901,178.858,366.064,177.94,365.453z"/>
		<path d="M177.328,352.907c-0.918-0.612-2.142,0.306-1.224,1.224c0.612,0.612,0.918,0.918,1.224,1.53
			c-3.672-1.53-7.038-3.672-10.098-5.508c-2.754-1.53-5.814-3.979-8.874-4.591c-0.918-0.306-1.224,1.225-0.306,1.53
			c7.65,2.754,13.158,9.792,21.114,11.934c0.918,0.307,1.836-0.611,1.53-1.529C179.776,355.354,178.858,354.131,177.328,352.907z"/>
		<path d="M180.388,348.929c-6.426-3.672-13.158-7.038-19.584-11.016c-1.224-0.918-2.448,1.224-1.224,2.142
			c6.426,4.284,12.852,8.263,19.89,11.017C180.694,351.683,181.612,349.541,180.388,348.929z"/>
		<path d="M237.61,370.655c-0.306-0.307-0.612-0.612-0.918-0.918h-0.306c-8.262-5.509-16.524-10.71-24.786-16.219
			c-0.612-0.611-1.224-0.306-1.836,0.307c-8.568-3.672-17.136-7.038-24.786-12.24c-0.612-0.306-1.224-0.306-1.53,0.306
			c-7.956-5.202-16.218-9.792-23.868-15.912c-1.53-1.224-3.978,0.918-2.448,2.448c7.956,6.426,16.524,13.158,26.316,16.83
			c0.306,0,0.612,0,0.918,0c7.956,5.202,16.524,9.486,25.704,11.628l0,0l0,0c8.874,5.508,17.136,11.322,26.01,16.83
			C237.304,374.021,239.14,371.573,237.61,370.655z"/>
		<path d="M181.918,330.569c-7.344-4.896-15.3-9.486-22.338-14.994c-1.53-1.225-3.978,0.918-2.448,2.447
			c7.038,5.814,14.688,11.629,23.256,15.301C182.224,333.935,183.754,331.793,181.918,330.569z"/>
		<path d="M183.143,321.389c-7.65-5.813-15.912-10.098-23.256-16.523c-1.53-1.225-3.978,0.918-2.448,2.447
			c7.038,6.427,15.606,13.465,24.786,16.83C183.754,324.449,184.366,322.307,183.143,321.389z"/>
		<path d="M178.858,307.007c-3.366-2.448-7.038-4.284-10.71-6.731c-3.672-2.448-7.344-5.509-10.71-8.263
			c-1.53-1.224-3.366,0.612-2.142,2.143c6.426,6.12,14.076,12.546,22.338,15.605C179.165,310.067,180.083,307.925,178.858,307.007z"
			/>
		<path d="M180.694,301.499c-7.344-6.732-17.136-11.628-25.398-16.83c-1.53-0.918-2.754,1.53-1.53,2.448
			c8.262,5.508,16.524,12.546,25.398,16.523C180.388,303.947,181.918,302.417,180.694,301.499z"/>
		<path d="M179.47,288.953c-8.568-5.508-17.748-9.486-26.01-15.3c-0.918-0.612-1.836,0.918-0.918,1.529
			c7.956,6.12,16.524,12.546,26.01,15.912C179.776,291.707,180.694,289.564,179.47,288.953z"/>
		<path d="M177.634,277.631c-7.65-5.508-16.218-9.18-23.562-14.995c-1.53-1.224-3.366,1.53-1.836,2.448
			c7.038,5.815,15.3,12.546,24.48,14.995C178.247,280.385,178.858,278.549,177.634,277.631z"/>
		<path d="M179.165,247.948c-0.612-0.612-1.53-0.306-2.142,0.306c-6.732-3.978-13.77-7.956-20.502-11.628
			c-1.53-0.918-2.754,1.224-1.224,2.142c7.65,4.896,15.3,10.098,23.256,14.688c1.224,0.918,3.06-0.612,2.754-2.142
			C181,249.785,180.388,248.867,179.165,247.948z"/>
		<path d="M180.388,237.851c-0.306-0.918-1.53-0.918-1.836-0.306c-7.65-4.59-15.912-8.568-23.868-12.852
			c-1.224-0.612-2.142,1.224-0.918,1.836c8.262,4.896,16.218,10.404,24.786,14.688c1.224,0.612,2.754-0.306,2.448-1.836
			C180.694,239.074,180.388,238.462,180.388,237.851z"/>
		<path d="M180.388,227.752c-3.672-2.142-7.956-3.672-11.628-5.508c-3.672-1.836-7.344-4.284-11.016-6.732
			c-1.224-0.918-3.06,1.224-1.836,2.142c6.426,5.202,14.688,11.322,22.95,13.158C181,231.424,182.224,228.977,180.388,227.752z"/>
		<path d="M179.47,219.796C179.47,219.796,179.165,219.796,179.47,219.796c-0.612-0.612-1.224-0.612-1.836-0.612
			c-0.918,0-2.754-1.53-3.366-1.836c-1.53-0.918-3.06-1.53-4.896-2.448c-3.06-1.53-5.814-3.06-8.874-4.59
			c-1.53-0.918-3.06,1.53-1.53,2.448c4.284,2.754,8.874,5.202,13.158,7.65c2.142,1.224,5.202,3.672,7.344,1.53
			C180.083,221.327,180.083,220.408,179.47,219.796z"/>
		<path d="M185.896,190.727c-4.284-3.366-8.874-6.12-13.464-9.18c-1.836-1.224-3.06,1.53-1.53,2.754
			c4.284,3.366,8.568,6.732,13.158,9.792C185.896,195.623,188.039,192.256,185.896,190.727z"/>
		<path d="M206.704,384.425c-7.956-4.59-15.912-8.568-23.562-13.77c-1.224-0.612-2.142,0.918-0.918,1.836
			c7.344,5.202,15.3,10.098,23.562,13.77C206.704,386.567,207.623,385.037,206.704,384.425z"/>
		<path d="M209.458,377.081c-1.224-1.53-2.754-3.061-3.978-4.59c-0.612-0.918-2.142,0.306-1.53,1.224l0,0
			c-6.732-3.978-13.464-7.956-20.196-11.628c-0.918-0.612-1.836,0.918-0.918,1.53c8.262,5.202,16.524,10.403,25.092,15.3
			C209.152,379.835,210.376,378.305,209.458,377.081z"/>
		<path d="M209.152,368.207c-7.956-4.896-16.524-9.486-24.786-13.464c-0.612-0.307-1.224,0.611-0.612,0.918
			c7.956,4.896,15.912,10.098,24.48,14.382C209.458,370.655,210.376,369.125,209.152,368.207z"/>
		<path d="M211.906,345.257c-4.59-0.918-9.486-5.202-13.464-7.65c-4.284-2.754-8.262-5.508-12.24-8.567
			c-1.53-1.225-3.366,1.53-1.53,2.754c4.896,3.672,10.098,7.344,15.3,10.71c3.366,2.142,7.956,6.426,11.934,5.202
			C212.824,347.399,213.13,345.562,211.906,345.257z"/>
		<path d="M211.906,333.629c-7.65-5.202-15.3-10.404-22.338-15.912c-1.224-0.918-2.754,0.612-1.53,1.53
			c7.038,6.12,14.688,11.934,22.95,16.218C211.906,335.771,212.824,334.241,211.906,333.629z"/>
		<path d="M207.316,318.022c-6.732-3.978-13.77-8.262-20.196-12.546c-0.918-0.611-1.53,0.612-0.612,1.225
			c6.426,4.896,13.158,9.18,20.196,13.158C207.316,320.471,208.234,318.635,207.316,318.022z"/>
		<path d="M208.234,304.865c-7.344-5.202-14.994-9.792-21.726-15.606c-0.612-0.612-1.836,0.306-1.224,1.225
			c6.12,6.426,13.464,12.852,21.726,16.523C208.541,307.619,209.458,305.783,208.234,304.865z"/>
		<path d="M209.764,292.625c-3.978,0.306-9.486-4.59-12.546-6.732c-4.284-2.754-8.568-6.12-12.546-9.485
			c-1.53-1.225-3.366,0.918-2.142,2.142c4.59,3.979,9.486,7.65,14.688,11.016c3.366,2.143,8.874,6.732,12.852,5.202
			C210.988,294.155,210.988,292.319,209.764,292.625z"/>
		<path d="M235.774,296.909c-8.262-4.59-16.524-7.956-23.868-14.076c-0.306-0.306-0.918-0.612-1.224-0.306
			c0.306-0.612,0.306-1.53-0.306-1.837c-6.732-4.283-13.464-8.262-19.278-13.464c-1.224-0.918-3.06,0.612-1.836,1.836
			c5.814,5.509,12.546,11.017,20.196,14.076c0.306,0,0.306,0,0.306,0c-0.918,0.612-1.224,1.53-0.306,2.448
			c7.038,6.12,15.912,12.546,25.092,14.382C236.386,300.274,237.61,297.827,235.774,296.909z"/>
		<path d="M208.234,270.899c-7.65-5.203-15.912-9.181-23.562-14.383c-1.53-0.918-2.754,1.53-1.53,2.448
			c7.65,4.896,15.3,10.405,23.562,14.077C208.541,273.653,209.764,271.817,208.234,270.899z"/>
		<path d="M234.856,275.183c-9.486-2.142-17.748-10.098-24.786-16.524c-0.306-0.306-0.918-0.306-1.224,0
			c-0.306-1.224-0.918-2.142-2.142-3.06c-0.612-0.612-1.836-0.306-2.142,0.612c-5.814-3.672-11.628-7.344-16.83-11.934
			c-1.224-1.224-3.366,0.918-1.836,1.836c6.426,5.814,13.464,11.016,21.114,15.3c0.918,0.612,2.142,0,2.448-0.918
			c3.672,4.284,7.956,8.262,12.546,11.628c3.672,2.754,8.262,6.731,12.852,5.508C236.081,277.019,236.081,275.183,234.856,275.183z"
			/>
		<path d="M209.152,247.948c-2.754-2.142-6.12-3.366-9.18-5.202s-5.814-3.672-8.874-5.814c-1.224-0.918-2.448,1.224-1.224,2.142
			c5.202,3.978,11.628,9.18,18.054,11.016C209.764,250.396,210.376,248.561,209.152,247.948z"/>
		<path d="M209.764,235.096c-0.612-1.224-1.224-1.836-2.448-2.754c-0.612-0.306-1.224-0.306-1.53,0.306
			c-2.754-1.53-5.814-3.06-8.568-4.59c-3.366-1.836-10.098-4.59-11.628-8.262c-0.612-1.53-3.06-0.918-2.448,0.612
			c1.53,3.978,5.202,5.814,8.568,7.956c5.202,3.366,10.098,6.426,15.606,8.874C208.846,238.156,210.376,236.626,209.764,235.096z"/>
		<path d="M212.212,226.528c-0.612-0.918-1.53-2.142-2.142-3.06c-0.918-1.224-2.142-0.612-2.448,0.306
			c-7.038-3.672-13.464-7.956-19.584-12.852c-1.224-1.224-3.366,0.612-1.836,1.836c7.038,6.426,14.994,12.24,23.562,16.218
			C211.294,229.588,213.13,228.059,212.212,226.528z"/>
		<path d="M234.55,376.469c-7.038-3.06-13.464-6.12-19.278-11.016c-1.224-0.918-3.06,0.611-1.836,1.836
			c5.814,4.896,12.852,9.18,20.196,11.322C234.856,378.917,235.774,377.081,234.55,376.469z"/>
		<path d="M238.222,360.863c-1.53-2.448-3.672-4.284-6.426-5.202c-1.224-0.307-1.53,1.224-0.612,1.836
			c0.612,0.306,1.224,0.612,1.53,0.918c-6.732-2.754-13.158-5.814-19.278-9.486c-1.224-0.918-2.754,1.225-1.224,2.143
			c7.65,4.896,15.606,9.18,24.48,11.934C237.61,363.311,238.528,362.087,238.222,360.863z"/>
		<path d="M240.364,351.683c-6.732-3.978-14.076-6.731-20.502-11.628c-1.224-0.918-2.754,1.225-1.53,2.143
			c6.12,4.896,13.464,10.403,21.42,11.628C240.67,353.825,241.588,352.295,240.364,351.683z"/>
		<path d="M266.375,348.623c-0.612-0.612-1.53-0.306-1.836,0.306c-9.18-4.896-18.972-8.874-28.152-13.158
			c-1.224-0.611-2.142,0.612-1.53,1.53c-4.896-2.754-18.972-9.792-20.502-10.71c-1.836-0.918-3.06,1.53-1.53,2.754
			c5.202,3.366,10.404,6.12,15.912,8.568c2.448,1.224,7.038,4.284,9.792,2.448c0.306-0.307,0.612-0.612,0.612-0.918
			c8.874,4.283,17.748,9.18,26.928,12.546c0.612,0.306,1.836-0.612,1.53-1.225C267.599,349.847,267.292,349.847,266.375,348.623z"/>
		<path d="M238.222,328.121c-9.18-6.426-19.278-11.628-28.764-18.054c-1.224-0.918-2.142,0.918-0.918,1.836
			c8.874,6.731,18.36,14.075,28.458,18.359C238.222,330.875,239.446,329.039,238.222,328.121z"/>
		<path d="M238.528,317.411c-3.978-2.448-8.874-3.979-13.158-6.12c-4.284-2.142-8.568-4.59-12.852-7.038
			c-1.53-0.918-2.754,1.224-1.224,2.142c7.65,5.202,17.136,11.628,26.622,12.853C238.834,319.553,239.752,318.022,238.528,317.411z"
			/>
		<path d="M238.222,307.007c-0.306-0.612-0.918-0.918-1.53-0.918c-1.53-0.306-3.978-2.142-4.896-2.754
			c-1.836-0.918-3.366-2.142-4.896-3.366c-3.672-2.448-7.038-5.202-10.404-7.956c-1.224-0.918-2.754,0.612-1.53,1.53
			c3.978,3.672,8.568,7.344,13.158,10.71c2.142,1.53,7.344,6.732,10.098,4.59C238.222,308.537,238.834,307.925,238.222,307.007
			C238.528,307.312,238.528,307.312,238.222,307.007z"/>
		<path d="M234.55,286.505c-0.612,0.612-10.404-5.508-11.322-6.12c-3.978-2.448-7.65-5.508-11.322-8.567
			c-1.224-0.919-2.754,0.611-1.836,1.836c4.284,3.978,8.874,7.649,13.77,10.71c3.06,1.836,7.956,6.12,11.628,5.201
			c0.612,0,0.918-0.611,0.918-0.918c0-0.306,0-0.306,0-0.611C237.304,286.505,235.468,285.281,234.55,286.505z"/>
		<path d="M234.55,265.696c-0.612-0.612-1.53-0.306-1.836,0c-6.426-4.284-13.464-8.568-19.89-12.852
			c-1.53-0.918-3.06,1.53-1.53,2.754c7.344,5.202,14.688,10.404,22.338,15.301c1.224,0.918,3.06-0.612,2.754-2.143
			C235.774,267.227,235.468,266.921,234.55,265.696z"/>
		<path d="M233.938,255.904C233.938,255.599,233.632,255.599,233.938,255.904c-0.612-0.306-0.918-0.306-1.224-0.306
			c-1.224,0-4.284-2.142-5.202-2.754c-1.836-0.918-3.672-2.142-5.508-3.06c-3.978-2.448-7.956-5.202-11.628-8.262
			c-1.224-0.918-2.754,0.612-1.53,1.53c3.366,2.754,22.95,19.89,26.01,14.688C234.856,257.128,234.55,256.21,233.938,255.904z"/>
		<path d="M237.917,244.888c-0.918-0.918-1.836-1.836-2.754-2.754c-0.918-0.612-1.836-0.612-2.142,0
			c-6.426-3.06-12.546-6.426-18.36-10.404c-1.224-0.918-2.448,1.224-1.224,2.142c7.038,5.202,14.382,9.792,22.338,13.77
			C237.61,248.561,239.752,246.418,237.917,244.888z"/>
		<path d="M266.68,354.131c-0.918-0.918-2.142-0.306-2.142,0.612c-6.426-3.061-13.158-5.814-19.584-8.568
			c-1.53-0.612-2.754,1.53-1.224,2.143c7.344,3.672,14.688,7.344,22.338,10.71c0.918,0.306,2.448,0,2.448-1.225
			C267.904,356.272,267.599,355.354,266.68,354.131z"/>
		<path d="M268.822,333.629c-10.404-4.284-20.808-7.344-30.6-12.852c-1.224-0.612-2.142,0.918-0.918,1.836
			c8.874,6.12,20.196,12.239,31.212,13.464C270.046,336.077,270.046,334.241,268.822,333.629z"/>
		<path d="M267.292,320.471c-8.568-4.896-17.441-8.874-25.704-14.382c-1.53-0.918-2.754,1.224-1.224,2.142
			c7.956,5.509,16.83,11.322,26.01,14.076C267.599,323.225,268.517,321.083,267.292,320.471z"/>
		<path d="M265.457,307.312c0-1.224-1.53-1.836-2.448-0.611c0,0-11.628-5.814-12.546-6.426c-4.284-2.448-8.262-4.896-11.934-7.65
			c-1.836-1.224-3.672,1.836-1.836,3.06c5.508,3.979,11.016,7.345,17.136,10.404c2.754,1.53,7.65,4.896,11.016,3.061
			c0.306-0.307,0.612-0.612,0.612-1.225C265.457,307.925,265.457,307.619,265.457,307.312z"/>
		<path d="M266.068,299.051c-7.65-5.813-16.83-10.404-25.398-14.688c-1.836-0.918-3.672,1.836-1.836,3.06
			c8.262,4.896,16.83,10.71,25.704,14.076C266.068,301.805,266.986,299.663,266.068,299.051z"/>
		<path d="M263.314,287.117c-7.344-5.202-15.3-9.181-22.644-14.688c-1.53-1.224-3.672,1.53-2.142,2.754
			c7.344,5.508,14.994,11.322,23.868,14.382C263.62,290.177,264.232,288.035,263.314,287.117z"/>
		<path d="M261.784,278.549c0.306-0.918-20.502-11.016-22.338-11.935c-1.53-0.612-2.448,1.225-1.224,2.143
			c5.202,3.061,10.71,6.12,16.218,8.874c2.448,1.224,6.426,4.59,9.18,3.06c0.612-0.306,0.612-0.918,0.612-1.224v-0.306
			C264.539,277.937,262.396,277.325,261.784,278.549z"/>
		<path d="M262.09,270.593c-1.224-1.53-2.448-2.142-3.978-2.754c-0.306,0-0.612,0-0.918,0c-6.732-3.672-13.464-7.344-19.89-11.322
			c-1.836-1.224-3.672,1.836-1.836,3.06c7.956,4.896,15.912,10.098,24.174,14.077C261.784,273.959,263.62,272.123,262.09,270.593z"
			/>
		<path d="M266.68,262.942c-1.224-1.53-1.224-1.224-2.754-2.142c-0.306-0.306-0.918,0-1.224,0
			c-7.956-3.978-15.912-7.344-23.868-11.322c-2.142-1.224-4.284,2.142-1.836,3.366c9.18,4.59,18.36,9.792,28.152,13.158
			C266.68,266.921,267.904,264.167,266.68,262.942z"/>
		<path d="M261.479,252.539c-8.262-3.06-15.606-6.426-22.644-11.934c-1.53-1.224-3.366,0.918-2.142,2.142
			c6.732,5.814,14.994,11.016,23.868,12.852C262.702,256.21,263.314,253.457,261.479,252.539z"/>
		<path d="M263.314,240.604c-1.836-2.754-3.978-4.896-7.038-6.426c-1.224-0.612-2.754,0.918-1.53,2.142
			c0.612,0.612,1.224,1.224,1.836,1.836c-6.12-2.448-11.628-5.508-16.83-9.792c-1.53-1.224-3.672,0.918-2.142,2.142
			c7.038,5.814,14.994,10.404,23.868,13.158C262.702,243.665,264.232,241.829,263.314,240.604z"/>
		<path d="M297.586,341.891c-0.306-0.611-0.611-1.224-0.918-1.836c-0.306-0.918-1.836-0.611-1.836,0.307
			c-8.567-3.673-17.136-6.732-25.704-10.404c-0.918-0.306-1.836,1.53-0.918,1.836c9.181,3.978,18.36,8.262,27.54,11.934
			C297.28,344.645,298.198,342.809,297.586,341.891z"/>
		<path d="M297.893,324.755L297.893,324.755c-1.225-0.612-2.448,0.306-1.836,1.53c-1.53-3.366-3.979-3.672-7.038-5.202
			c-2.143-0.918-3.979-1.836-6.12-2.754c-4.896-2.143-9.486-4.284-14.382-6.426c-1.225-0.612-2.448,1.224-1.225,1.836
			c5.814,2.754,11.322,5.508,17.137,8.262c3.672,1.836,8.567,5.508,12.852,5.508c0.918,0,1.53-0.612,1.53-1.53v-0.306
			C298.504,325.673,298.198,325.061,297.893,324.755z"/>
		<path d="M295.444,314.963c-7.65-3.06-15.3-6.426-22.338-10.71c-1.836-1.224-3.672,1.836-1.836,3.06
			c7.344,4.591,14.994,8.568,23.256,10.71C296.668,318.329,297.28,315.575,295.444,314.963z"/>
		<path d="M324.208,316.493c-0.306-0.307-0.918-0.612-1.224-1.225c-0.306-0.306-0.918-0.306-1.224,0
			c-7.956-3.672-16.219-7.038-24.48-9.485c-0.918-0.307-1.53,1.224-0.306,1.529c0.306,0,0.611,0.307,0.918,0.307
			c-0.612,0.306-1.225,0.918-1.225,1.53c-0.611-4.284-10.098-7.038-13.77-8.875c-4.896-2.447-10.098-4.896-14.994-7.344
			c-1.836-0.918-3.366,1.836-1.53,2.448c6.12,3.06,11.934,6.12,18.054,9.486c3.978,2.142,8.874,6.12,13.464,6.426
			c0.611,0,1.224-0.612,1.529-1.224v-0.307c0.307-0.611,0-1.224-0.306-1.53l0,0c8.262,2.755,15.912,6.427,23.562,10.404
			C323.902,319.553,325.433,317.717,324.208,316.493z"/>
		<path d="M321.761,307.007c-2.143-1.224-3.979-2.448-6.12-3.366c-0.612-0.306-0.918,0-1.225,0.307
			c-6.12-2.754-12.239-5.814-18.359-9.181c-0.918-0.611-1.53,0.307-1.53,1.225c-9.486-2.754-18.054-6.12-25.704-12.24
			c-1.836-1.224-4.284,0.918-2.448,2.448c7.956,6.426,17.442,11.628,27.54,12.852c1.225,0.306,2.143-0.918,1.836-2.142
			c7.65,5.202,15.912,9.792,24.48,13.158C322.372,310.373,323.29,307.925,321.761,307.007z"/>
		<path d="M295.139,285.893c-8.263-5.508-17.442-9.792-25.398-15.912c-1.224-0.918-3.06,0.612-1.836,1.837
			c7.65,6.426,16.524,13.77,26.01,17.136C295.75,289.259,296.362,286.811,295.139,285.893z"/>
		<path d="M323.29,281.609c-0.306-0.307-0.918-0.307-1.529-0.307h-0.307c-0.306,0-0.306,0.307-0.306,0.612
			c-0.612-0.918-1.53-1.53-2.754-1.836c-0.612-0.307-1.53-0.612-2.143-0.918c-1.836-0.918-3.672-1.53-5.508-2.143
			c-4.284-1.836-8.874-3.672-13.158-5.201c-0.918-0.307-1.529,0-1.529,0.611c-3.979-1.836-7.956-3.366-11.935-5.508
			c-4.284-2.449-8.567-4.896-12.546-7.957c-1.836-1.224-3.366,1.53-1.836,2.754c7.344,5.508,17.136,12.546,26.622,14.077
			c0.612,0,1.224-0.306,1.53-0.612c5.202,2.143,10.403,4.284,15.605,6.427c2.754,1.224,7.038,3.978,9.792,2.754
			c0.307-0.307,0.612-0.612,0.612-1.225C323.902,282.221,323.597,281.915,323.29,281.609z"/>
		<path d="M293.303,261.413c-0.307-0.918-1.225-0.918-2.143-0.306c-0.306,0-0.611-0.306-1.224-0.306
			c-0.918-0.612-1.836-0.918-2.754-1.53c-1.836-0.918-3.672-2.142-5.202-3.06c-3.672-2.448-7.344-4.896-10.71-7.956
			c-1.53-1.224-3.366,0.918-2.143,2.142c5.509,5.202,11.629,9.486,18.36,13.158c1.224,0.612,3.366,2.142,4.896,1.224
			C293.608,263.554,293.608,262.331,293.303,261.413z"/>
		<path d="M292.078,253.457c-3.672-2.754-8.874-3.978-12.852-5.814c-4.284-1.836-8.568-4.284-12.546-6.732
			c-1.836-1.224-3.672,1.836-1.836,3.06c4.59,2.754,9.18,5.508,14.076,7.65c3.979,1.836,8.263,4.284,12.547,4.284
			C292.996,255.904,292.996,254.068,292.078,253.457z"/>
		<path d="M295.139,247.03c-9.486-3.978-18.055-9.18-26.622-14.688c-1.836-1.224-3.672,1.836-1.836,3.06
			c5.203,3.672,10.404,7.038,15.913,10.098c3.365,1.836,8.262,5.814,12.239,4.284C296.362,248.867,296.057,247.336,295.139,247.03z"
			/>
		<path d="M293.303,236.32c-4.591-2.142-9.486-3.06-14.076-5.508c-4.896-2.448-9.486-5.814-13.464-9.486
			c-1.53-1.53-3.978,0.918-2.448,2.448c7.65,7.344,18.36,14.688,29.07,15.606C293.914,239.38,294.832,236.933,293.303,236.32z"/>
		<path d="M343.181,246.725c-3.366,0.918-9.792-3.672-12.853-5.202c-3.978-2.142-7.956-4.59-11.628-6.732
			c-0.612-0.306-0.918-0.306-1.224,0c0-0.306-0.307-0.612-0.612-0.612c-4.896-1.836-10.098-3.672-14.994-5.508
			c-2.448-0.918-6.12-3.978-8.874-2.754c0-0.306-0.306-0.612-0.611-0.612c-3.979-2.448-8.568-3.366-12.853-5.508
			c-4.59-2.448-8.874-5.202-12.852-8.568c-1.53-1.224-3.978,0.918-2.142,2.142c7.038,6.12,17.442,13.77,27.234,14.382
			c0.306,0,0.612,0,0.612-0.306c0.306,0.306,0.306,0.306,0.918,0.612c0.611,0,0.918-0.306,1.224-0.612c0,0,0,0,0-0.306
			c0.612,0.918,1.224,1.836,2.448,2.142c0.918,0.612,2.142,0.918,3.06,1.53c1.53,0.612,2.754,1.224,4.284,1.836
			c3.979,1.53,7.956,3.06,12.24,3.978c0.306,0,0.306,0,0.306,0c0,0.306,0.306,0.918,0.612,1.224
			c5.202,3.978,11.322,7.344,17.136,10.098c3.061,1.53,7.65,4.59,10.404,1.53C345.628,247.948,344.71,246.112,343.181,246.725z"/>
		<path d="M289.019,212.146L289.019,212.146c-6.732-1.836-12.853-4.59-18.666-7.956c-1.53-0.918-2.754,1.224-1.225,2.142
			c6.12,3.978,12.547,7.344,19.584,9.486c0.919,0.306,1.837-0.306,2.143-1.224c0-0.612,0.306-0.918,0.306-1.53
			C291.467,212.146,289.937,211.229,289.019,212.146z"/>
		<path d="M291.16,202.966c-3.366-2.142-7.344-3.978-11.016-6.12c-3.979-2.448-7.65-4.896-11.017-7.65
			c-1.529-1.224-3.671,0.918-2.142,2.142c6.732,5.508,14.382,11.934,22.645,14.688C291.772,206.638,292.69,203.884,291.16,202.966z"
			/>
		<path d="M291.772,194.398c-2.754-2.448-6.426-3.366-9.792-4.896c-3.672-1.836-7.344-3.366-11.016-5.202
			c-1.837-0.918-3.366,1.836-1.53,2.754c3.672,1.836,7.038,3.979,10.71,5.814c3.06,1.53,6.731,3.978,10.098,4.284
			C291.772,197.152,293.303,195.623,291.772,194.398z"/>
		<path d="M320.23,327.814c-6.732-2.447-14.688-3.365-21.727-5.201c-0.611,0-0.611,0.611-0.306,0.611
			c6.732,2.448,14.382,5.509,21.727,6.12C320.843,329.345,320.843,328.121,320.23,327.814z"/>
		<path d="M323.29,322.307c-8.262-3.06-16.83-5.202-25.092-8.567c-0.918-0.307-1.836,1.529-0.918,1.836
			c7.956,3.672,16.83,7.649,25.398,8.874C323.902,324.755,324.515,322.919,323.29,322.307z"/>
		<path d="M321.454,301.499c-7.956-5.202-18.054-7.956-26.622-11.935c-1.224-0.611-2.142,1.225-0.918,1.53
			c8.568,4.284,17.748,9.792,26.929,11.935C321.761,303.335,322.372,301.805,321.454,301.499z"/>
		<path d="M321.454,290.483c-3.978-1.225-7.956-2.143-11.934-3.366c-3.979-1.225-10.71-2.754-13.464-6.12
			c-1.53-2.143-4.896,0-3.366,1.836c2.754,3.672,7.038,4.896,11.016,6.426c5.509,1.836,11.017,3.672,17.137,3.979
			C322.679,293.237,322.679,290.789,321.454,290.483z"/>
		<path d="M346.24,287.117c-0.612-0.612-0.918-1.53-1.53-2.143c-0.611-0.918-2.447-0.306-1.836,0.918v0.307
			c-3.365-0.918-7.344-3.366-10.098-4.896c-3.672-1.836-7.344-3.672-11.016-5.202c-0.307,0-0.307,0-0.612,0
			c0-0.611-0.306-1.224-0.918-1.529c-5.508-1.836-11.016-3.061-16.218-6.427c-1.836-1.224-3.366,1.837-1.53,2.755
			c5.202,3.06,11.322,6.119,17.441,6.119c0.612,0,0.919-0.306,0.919-0.306s0,0.306,0.306,0.306c4.59,2.755,9.18,5.202,13.77,7.956
			c3.061,1.836,6.427,4.591,10.099,4.284C345.935,288.953,346.853,288.035,346.24,287.117z"/>
		<path d="M322.066,267.227c-8.874-3.366-17.442-7.344-25.092-12.852c-1.836-1.224-3.366,1.53-1.836,3.06
			c7.956,5.814,16.523,10.099,26.01,12.546C322.984,270.593,323.597,267.839,322.066,267.227z"/>
		<path d="M345.017,267.839c-0.307-0.918-1.225-1.225-1.836-0.918c-1.836-0.307-4.284-2.143-5.509-3.061
			c-1.529-0.918-2.754-1.53-4.283-2.448c-3.366-1.836-6.732-3.672-10.099-5.508c-0.918-0.612-1.836,0-1.836,0.918
			c-6.731-3.978-14.076-6.426-20.808-10.404c-1.53-0.918-3.061,1.53-1.53,2.448c6.426,4.284,14.382,9.18,22.032,10.098
			c0.612,0,0.918-0.306,1.224-0.612c4.284,2.754,8.874,5.508,13.464,8.262c2.448,1.53,5.814,4.591,8.568,3.061
			C345.017,269.369,345.322,268.757,345.017,267.839C345.017,268.145,345.017,268.145,345.017,267.839z"/>
		<path d="M318.395,243.052c-7.344-2.142-14.382-4.896-20.809-9.18c-1.836-1.224-3.672,1.836-1.836,3.06
			c6.732,4.284,14.076,7.65,22.032,8.874C319.312,246.112,320.23,243.358,318.395,243.052z"/>
		<path d="M345.322,238.156c-0.306-0.306-0.612-0.918-0.918-1.224c-0.612-0.612-1.224-0.612-1.836-0.306
			c-8.874-3.672-17.136-7.65-25.092-13.158c-1.836-1.224-3.672,1.53-1.836,3.06c-7.345-1.836-14.994-6.12-21.114-10.098
			c-2.142-1.224-3.672,1.836-1.836,3.06c4.896,3.06,9.792,5.508,14.994,7.65c3.366,1.53,7.956,4.284,11.016,1.53v-0.306
			c7.65,5.202,16.218,9.792,25.092,12.546C345.628,242.134,346.546,239.687,345.322,238.156z"/>
		<path d="M317.477,207.557c-7.956-4.284-16.218-7.344-24.786-10.71c-1.836-0.612-3.06,2.142-1.224,3.06
			c7.955,3.672,16.218,7.65,24.785,10.404C318.088,210.922,319.006,208.168,317.477,207.557z"/>
		<path d="M318.395,198.07c-3.366-1.836-7.65-2.754-11.322-4.59s-7.038-3.978-10.404-6.12c-1.224-0.918-3.06,1.224-1.836,2.142
			c6.12,4.896,14.688,10.71,22.645,11.016C319.312,200.519,319.618,198.683,318.395,198.07z"/>
		<path d="M318.7,186.749c-2.448-1.836-5.508-2.754-8.262-4.284c-3.061-1.53-6.426-3.06-9.486-4.59
			c-1.836-0.918-3.672,1.836-1.836,3.06c5.202,3.06,12.24,7.65,18.36,8.262C319.006,189.502,319.925,187.36,318.7,186.749z"/>
		<path d="M320.536,180.017c-3.366-1.836-7.344-3.06-10.71-4.896c-3.672-1.836-7.038-3.672-10.098-5.814
			c-1.836-1.224-3.672,1.836-1.836,3.06c6.12,4.284,13.77,9.486,21.42,10.71C321.148,183.077,322.372,180.935,320.536,180.017z"/>
		<path d="M345.322,296.297c-5.202-0.306-10.098-3.366-14.688-5.813c-1.836-0.919-4.896-3.979-7.345-3.366
			c-0.306,0-0.611,0.611-0.611,0.918c0,0.306,0,0.306,0,0.611c0,0.307,0.306,0.612,0.611,0.919h0.307c0.306,0,0.611,0,0.611-0.307
			c0.612,0.307,1.225,0.612,1.836,1.225c0.918,0.611,1.836,1.224,2.755,1.529c2.142,1.225,4.59,2.754,7.037,3.979
			c3.061,1.529,6.12,3.366,9.792,2.447C346.853,298.133,346.546,296.297,345.322,296.297z"/>
		<path d="M345.017,275.183c-0.612-1.529-2.754-1.224-3.061,0.307c0-1.225-8.567-4.59-10.098-5.509
			c-3.366-1.836-6.426-3.978-9.792-6.12c-1.224-0.612-2.448,0.918-1.53,1.836c5.202,4.591,11.628,8.568,17.748,11.322
			C340.732,278.243,346.853,280.079,345.017,275.183z"/>
		<path d="M371.332,200.212c-29.376-70.074-113.22-63.342-137.7-2.754c-7.038-19.584-24.786-34.884-46.818-39.474
			c-33.354-6.732-67.32,13.158-84.762,40.698c-21.726,33.966-21.114,82.314-5.814,118.422c20.196,47.431,79.866,72.828,122.4,95.778
			c0.612,0.306,0.918,0.306,1.53,0.612c3.06,3.06,7.956,3.978,11.934,0c33.966-37.944,87.516-49.878,119.646-89.658
			C378.677,289.871,388.162,240.604,371.332,200.212z M193.853,179.71c0,0.306,0,0.612,0.306,0.918
			c5.508,4.284,11.016,8.568,16.524,12.852c-1.53-0.918-3.06-1.53-4.284-2.448c-4.896-3.06-9.486-6.12-13.77-9.486
			c-1.224-0.918-3.06,1.224-1.836,2.142c4.284,3.366,8.568,6.426,13.158,9.792c4.284,3.06,8.874,6.732,14.076,8.262
			c0.306,0,0.918,0,1.224-0.306c1.836,3.366,3.672,6.732,4.896,10.404c-1.53-1.224-3.06-2.448-4.284-3.978
			c0-0.612,0-1.224-0.612-1.53c-8.568-6.12-17.748-11.016-26.01-17.136c0.306-0.612,0.306-1.836-0.612-2.142
			c-5.814-4.284-12.852-7.956-19.584-11.322C179.776,175.121,187.12,176.65,193.853,179.71z M341.65,309.149
			c-3.979-2.755-8.262-5.509-12.24-8.263c2.143,0.918,4.284,1.836,6.426,2.448c2.448,0.918,5.509,3.06,7.956,2.142
			c0.307,0,0.307-0.306,0.612-0.306C343.486,306.395,342.568,307.925,341.65,309.149z M296.668,207.25
			c5.509,5.202,13.771,11.322,21.727,11.322c0.611,0,0.918-0.306,1.224-0.918c0,0,0,0.306,0.307,0.306
			c7.649,4.284,15.605,9.792,23.867,12.24c0.307,0,0.612,0,0.612,0c0,2.754,5.202,5.508,7.344,6.732
			c3.366,2.448,7.038,4.59,11.017,6.12c0,1.224,0,2.448,0,3.672c-0.612-0.306-1.225-0.612-1.225-0.612
			c-1.529-0.918-3.06-2.142-4.59-3.06c-3.06-2.142-6.426-4.284-9.792-6.426c-0.306-0.306-1.224,0.306-0.918,0.612
			c0.307,0.612,0.612,1.53,0.612,2.448c0,0.306,0.612,0.306,0.612,0c0-0.306,0-0.612,0-0.918c4.59,3.978,9.485,8.262,14.688,11.628
			c0,1.224,0,2.142-0.306,3.366c0,0,0,0-0.307,0h-0.306c-1.53-0.918-2.754-1.836-4.284-2.448c-2.754-1.53-5.508-3.366-8.567-4.59
			c0.611-0.306,1.224-0.612,1.836-0.918l0,0c-1.225,0-2.143,0-3.061,0.306c-0.306,0-0.612,0.612-0.306,0.918
			c3.06,3.06,7.038,5.508,10.71,7.956c0.918,0.612,2.448,1.836,3.672,3.06c-0.306,1.836-0.612,3.978-1.224,5.814
			c-4.591-2.448-9.181-4.896-13.771-7.344c-0.612-0.306-1.53,0.306-1.224,0.918c-7.956-2.448-15.606-6.732-22.95-10.404
			c-1.836-0.918-3.672,1.836-1.836,3.06c4.896,2.448,9.792,4.896,14.688,7.344c3.366,1.836,7.038,4.284,10.71,3.06
			c0,0.612,0,0.918,0.612,1.224c3.979,2.754,7.956,6.121,12.24,8.875c-0.307,0.918-0.612,2.143-0.918,3.061
			c-3.061-1.53-5.814-2.755-8.874-4.284c-1.225-0.612-2.448,1.224-1.225,1.836c3.061,1.836,6.12,3.366,9.181,5.202
			c-0.307,1.224-0.612,2.447-1.225,3.672c-1.836-1.225-3.672-2.448-5.508-3.366c-1.224-0.918-2.448,1.224-1.224,2.142
			c1.836,1.225,3.672,2.754,5.813,4.284c-0.306,0.918-0.611,1.836-1.224,2.754c-1.224-0.918-2.448-1.836-3.672-2.754
			c-1.53-1.224-3.366,0.918-2.142,2.143c1.529,1.224,3.06,2.447,4.59,3.672c-1.836,4.284-3.672,8.567-5.509,11.934
			c-0.918,1.53-2.142,3.061-3.06,4.59c0-0.306,0.306-0.306,0.306-0.611c0-0.307,0-0.307,0-0.612c0-0.918-1.224-1.224-1.836-0.612
			c-0.918,0.918-7.649-2.448-9.18-2.754c-3.366-1.224-6.732-2.142-10.404-3.366c-0.918-0.306-1.224,0.918-0.611,1.225
			c4.59,2.754,8.874,5.813,12.852,9.18c-5.202-1.224-10.098-2.448-15.3-3.672c-1.225-0.306-1.836,1.836-0.612,2.142
			c6.426,1.836,13.158,3.673,19.584,5.202c-0.918,1.225-1.836,2.448-2.754,3.366l-0.306-0.306c-3.672-0.918-7.65-1.225-11.628-2.143
			c-1.836-0.611-3.979-1.836-6.12-0.918c-0.307,0.307-0.612,0.612-0.307,1.225c0,0.611,0.307,0.611,0.612,0.918
			c0.306,0.306,0.918,0.306,1.224,0c0,0,0,0,0-0.307c0,0,0,0,0-0.306c2.448,1.224,7.038,2.448,7.345,2.448
			c2.448,0.611,4.896,1.224,7.344,1.224c-5.508,6.12-11.628,11.628-18.054,16.83c-1.225-1.224-2.448-1.836-4.284-2.142
			c-0.612,0-1.224,0.611-0.918,0.918c-4.896-0.918-9.486-1.836-14.076-3.672c-0.918-0.307-1.53,1.224-0.612,1.529
			c5.509,2.448,11.322,4.284,17.442,4.896c-1.224,0.918-2.754,2.142-3.978,3.06c0,0,0-0.306-0.307-0.306
			c-4.284-0.918-8.568-1.53-12.852-2.448c0.918-0.306,1.224-1.53,0.918-2.448c-0.918-1.836-1.836-2.754-3.672-3.672
			c-0.918-0.611-1.836,0.307-1.836,1.225c-7.956-3.366-15.912-6.732-23.868-9.792c-1.53-0.612-2.448,1.836-0.918,2.447
			c8.875,3.979,17.749,7.956,26.928,11.628c-0.612,0-0.918-0.306-1.53-0.306c-1.224-0.306-1.529,1.53-0.611,1.836
			c4.59,1.836,9.792,3.366,14.993,3.979c-4.283,3.06-8.567,5.813-12.852,8.567c0-0.306,0-0.611,0-1.224
			c-0.918-1.836-2.142-2.754-3.978-3.366c-0.919-0.306-1.225,0.306-1.225,0.918c-5.813-2.142-11.934-4.284-17.748-6.426
			c-1.53-0.612-1.836,1.836-0.611,2.142c7.344,3.061,14.688,5.814,22.031,8.874c-0.918,0.612-1.836,0.918-2.447,1.53
			c-1.837-2.142-3.979-3.366-6.427-4.284c-0.918-0.306-1.529,1.225-0.611,1.53c0.306,0.306,0.611,0.306,0.918,0.612
			c-4.284-1.53-8.874-3.061-13.464-4.591c0-0.306,0-0.611-0.307-0.918c-2.448-2.447-5.202-4.896-7.956-7.038
			c-0.918-0.611-1.836,0.919-1.224,1.53c1.53,1.53,3.06,3.061,4.284,4.59c-4.59-1.224-8.874-3.978-12.852-5.813
			c-4.59-2.143-8.874-4.59-13.464-7.038c-1.53-0.918-2.754,1.224-1.224,2.142c5.814,3.366,11.322,6.732,17.442,9.792
			c4.59,2.448,8.874,5.202,14.076,4.896c0.306,0,0.918-0.307,0.918-0.612c5.814,2.448,11.628,4.59,17.442,7.038
			c-0.918,0.612-1.53,0.918-2.448,1.53l0,0c-0.612-0.307-1.224,0-1.224,0.611c-4.591-1.224-8.874-2.447-13.158-4.283
			c-1.225-0.612-2.448,1.224-1.225,1.836c3.673,1.836,7.65,3.365,11.628,4.283c-4.59,2.755-9.485,5.509-14.076,8.263
			c0-0.307,0-0.612-0.306-0.918c0,0-0.306,0-0.306-0.307l0,0h-0.306c-1.224-0.918-2.448-1.836-3.978-2.754c-0.306,0-0.612,0-0.918,0
			c-6.12-3.06-12.852-5.813-18.972-8.874c-1.53-0.611-2.754,1.53-1.224,2.143c7.65,4.283,15.606,9.18,24.174,11.628
			c-1.224,0.918-2.754,1.53-3.978,2.448c-7.038-2.755-14.076-5.509-21.114-7.956c-0.918-0.307-1.53,1.224-0.612,1.529
			c6.426,2.754,12.852,5.509,19.278,7.956c-1.224,0.612-2.142,1.225-3.366,2.143c-5.508-2.143-11.628-3.979-17.136-5.814
			c-0.918-0.306-1.836,1.225-0.612,1.836c4.896,2.143,9.792,4.284,14.688,6.12c-1.224,0.918-2.448,1.53-3.672,2.448
			c-1.53-0.307-2.754-0.307-3.366-0.612c-2.754-0.611-5.202-1.53-7.956-2.142c-0.918-0.307-1.836,1.224-0.612,1.836
			c2.754,1.53,5.508,2.448,8.568,3.366c-2.754,1.836-5.202,3.672-7.65,5.813c0.306-0.306,0-0.918-0.306-1.224
			c-7.956-4.284-17.136-6.732-25.092-10.71c-0.918-0.612-2.142,1.224-0.918,1.53c8.262,3.672,16.524,8.567,25.398,11.016h0.306
			c-1.224,0.918-2.448,1.836-3.672,2.754v-0.306l-0.306-0.307c-0.306-0.611-1.53-0.306-1.53,0.307c0-0.918-7.956-3.366-8.874-3.673
			c-3.366-1.224-6.732-2.447-10.098-3.672c-1.224-0.306-1.53,1.225-0.612,1.836c4.896,2.143,10.098,4.284,14.994,6.12
			c1.224,0.612,2.754,1.53,4.284,1.53c-1.224,1.224-2.754,2.448-3.978,3.672c-5.508-2.754-11.322-5.202-17.136-6.731
			c-0.918-0.307-1.53,0.918-0.918,1.529c0,0,0,0,0.306,0l0,0c0.306,0,0.612,0.307,0.918,0.307c0.306,0.306,0.612,0.306,0.918,0.611
			c4.284,2.448,9.18,4.284,14.076,6.12c-1.224,0.918-2.142,2.143-3.366,3.061c-22.338-15.606-49.878-28.765-72.828-45.595
			c0.918,0.307,1.836,0.918,2.754,1.225c0.918,0.306,1.53-1.225,0.612-1.53c-5.508-2.754-10.404-5.813-15.3-9.18
			c-5.202-4.59-9.792-9.181-14.076-14.382c2.754,2.754,5.814,5.508,8.568,8.262c0.918,0.918,2.142-0.612,1.53-1.53
			c-5.508-5.508-11.016-11.016-16.524-16.523c-1.224-1.836-2.142-3.673-3.366-5.814c4.896,4.896,9.486,9.792,14.688,14.382
			c0.918,0.918,2.448-0.611,1.53-1.53c-5.202-5.508-11.016-10.71-16.524-15.911c-0.306-0.307-0.918-0.307-1.224,0
			c-0.612-1.53-1.53-3.366-2.142-4.896c6.732,5.814,13.464,11.628,20.502,17.136c0.612,0.612,1.53-0.611,0.918-1.224
			c-7.344-6.732-14.994-13.158-22.644-19.584c-0.918-3.06-1.836-5.814-2.754-9.18c0,0,0,0,0-0.307
			c6.426,7.345,13.464,14.382,21.114,20.809c0.918,0.918,2.448-0.612,1.53-1.53c-7.956-7.344-15.912-14.994-23.256-22.95
			c-0.612-2.754-0.918-5.508-1.224-8.262c5.508,6.731,11.628,13.158,18.666,18.666c1.224,0.918,2.448-0.918,1.53-1.836
			c-7.038-7.038-14.382-14.076-20.808-22.032c0-0.918,0-1.836-0.306-2.754c5.508,5.813,11.628,11.628,18.666,15.912
			c0.918,0.612,2.142-0.918,1.224-1.53c-7.038-6.12-13.77-11.934-20.196-18.666c0-2.142,0-4.284-0.306-6.121
			c6.12,6.121,12.24,12.546,18.972,17.749c1.53,1.225,3.06-0.611,1.836-1.836c-0.612-0.612-1.224-1.224-1.836-1.836
			c-0.306-0.306-0.306-0.306-0.612-0.306c-6.12-5.814-12.546-11.629-18.666-17.443c0-1.53,0-3.06,0.306-4.284
			c6.12,6.732,13.158,13.465,20.808,18.36c1.224,0.612,2.448-0.918,1.224-1.836c-7.344-6.732-14.994-13.159-22.032-20.197
			c0.306-2.754,0.612-5.508,0.918-8.262c2.448,3.06,4.896,6.12,7.65,8.874c3.06,3.06,6.426,6.732,10.098,8.568
			c0.918,0.306,2.142-0.306,2.142-1.224l0,0c6.732,6.426,15.606,14.689,24.48,17.443c1.53,0.306,2.754-1.53,1.53-2.448
			c-3.366-3.06-7.65-4.896-11.322-7.344c-4.284-3.06-8.568-6.426-12.546-9.792c-1.224-1.224-3.06,0-2.754,1.224
			c-2.448-3.366-6.12-6.12-9.18-9.18c-3.366-3.366-6.732-7.038-9.792-10.71c0.306-0.918,0.612-1.836,0.612-3.06
			c2.142,2.142,4.284,4.284,6.732,6.426c3.366,2.754,7.038,6.732,11.322,8.262c0.306,0,0.612,0,0.918-0.306
			c0,0.306,0.306,0.918,0.612,1.224c4.896,3.978,10.098,7.65,15.3,11.016c3.06,2.142,7.956,7.038,11.934,6.427
			c0.612,0,0.918-0.612,1.224-1.225c0-0.306,0-0.306,0-0.612c0-0.918-0.306-1.53-0.918-1.836h-0.306c-0.306,0-0.612,0-0.918,0
			c-0.306-0.306-0.918-0.612-1.224-0.918c-0.918-0.918-2.142-1.224-3.06-1.836c-2.448-1.53-4.59-3.06-7.038-4.59
			c-4.284-3.06-8.568-6.12-12.852-9.18c-0.918-0.612-1.53-0.306-2.142,0.612v-0.306c-2.754-3.672-7.344-6.12-11.016-9.18
			c-2.754-2.142-4.896-4.59-7.344-7.038c0.306-1.53,0.918-3.06,1.53-4.59c4.59,5.202,9.792,10.098,15.3,13.77
			c1.53,0.918,2.754-0.918,1.836-2.142c-3.06-3.366-6.732-6.12-9.792-9.18c-2.142-1.836-3.978-3.672-6.12-5.814
			c0.612-1.836,1.53-3.672,2.142-5.814c3.978,5.202,8.874,9.792,14.382,12.546c1.224,0.612,2.754-0.918,1.53-2.142
			c-3.06-3.06-6.732-5.202-10.098-8.262c-1.836-1.53-3.366-3.366-4.896-4.896c0.918-1.836,2.142-3.672,3.06-5.508
			c3.672,3.978,7.65,7.956,11.934,10.71c1.836,1.224,3.366-1.224,2.142-2.754c-3.672-4.284-7.65-8.262-11.628-12.24
			c0.612-0.918,1.224-1.53,1.836-2.448c3.978,3.978,8.874,7.344,14.076,8.874c1.224,0.306,1.836-1.53,0.918-2.142
			c-4.59-3.06-8.874-5.814-12.852-9.486c0.612-0.612,0.918-1.224,1.224-1.836c0.306-0.306,0.612-0.612,0.918-0.918
			c3.06,3.06,6.426,6.12,10.404,7.65c1.53,0.612,2.448-1.53,1.53-2.448c-2.448-3.06-5.508-5.508-8.568-8.262
			c0.612-0.612,1.224-0.918,1.53-1.53c2.448,2.448,5.202,4.896,8.568,6.12c0.918,0.306,1.836-0.918,1.224-1.836
			c-1.836-2.448-4.59-4.896-7.038-7.038c0.918-0.918,2.142-1.53,3.06-2.142c2.142,1.53,4.284,2.754,6.732,3.672
			c1.224,0.306,2.448-1.53,1.53-2.448c-1.53-1.224-3.06-2.448-4.59-3.672c0.918-0.612,2.142-1.224,3.06-1.836
			c0.918,0.918,1.53,1.53,2.448,2.448c-0.918,0.612-1.836,1.836-0.612,2.754c4.284,3.978,10.404,8.874,16.524,9.18
			c0,0.306,0.306,0.612,0.612,0.918c7.038,4.896,13.77,10.098,21.114,14.382c1.53,0.918,3.672-0.918,2.754-2.754
			c-1.224-1.836-2.448-3.06-4.284-4.284c-0.612-0.306-1.224-0.306-1.53,0.306c-5.508-3.366-11.016-6.732-16.524-10.098l0,0
			c0-0.306-0.306-0.918-0.612-0.918c-2.448-1.53-5.202-2.448-7.65-3.672c-1.53-0.918-2.754-1.836-4.284-2.754
			c1.224-0.306,2.142-2.142,0.918-3.672c-0.306-0.306-0.306-0.306-0.612-0.612c4.59,3.06,9.486,6.12,14.382,8.262
			c0.918,0.306,1.53,0,2.142-0.612c5.814,4.284,11.628,8.262,18.054,11.934c1.53,0.918,3.366-0.918,2.448-2.448l0,0
			c3.672,3.06,7.65,5.814,11.628,8.568c3.06,2.142,9.18,7.65,13.158,7.344c0.612,0,1.53-0.612,1.53-1.53v-0.306
			c0-0.918-0.612-1.53-1.53-1.224c0,0,0,0-0.306,0c-0.612,0.306-1.224,1.224-0.612,1.836c0.306-1.836-0.306-3.06-2.142-3.366
			c-1.224-0.612-2.448-1.224-3.366-1.836c-2.448-1.224-4.59-2.754-6.732-3.978c-4.59-2.754-8.874-5.814-12.852-8.874
			c-0.306-0.306-0.918,0-1.224,0.306c-0.612-0.612-1.224-0.918-1.836-1.53c-1.836-1.224-3.06-0.306-3.06,0.612
			c-4.284-2.448-8.568-4.896-12.546-7.65c-0.612-0.306-1.224,0-1.53,0.306c-4.59-4.284-10.71-7.65-16.218-10.71
			c0.918-0.306,2.142-0.612,3.06-1.224c3.366,1.836,6.732,3.672,10.098,5.508c2.448,1.224,5.508,3.672,8.262,1.836
			c1.224-0.918,0.918-3.06-0.918-3.06c-2.754,0-7.038-3.672-9.486-4.896c-0.918-0.306-1.53-0.918-2.448-1.224
			c3.06-0.918,6.426-1.53,9.486-1.836c7.344,4.896,14.994,9.792,23.256,13.158c0,0.306,0,0.612,0.306,0.612
			c8.262,6.732,17.442,14.688,27.234,18.972c0,0.612,0,0.918,0.306,1.53c2.754,3.06,5.508,5.814,8.874,8.262
			c0.306,1.836,0.918,3.672,1.224,5.814c-0.612-0.612-1.224-0.918-1.836-1.53c-3.672-2.448-7.038-5.508-10.404-8.262
			c1.53,0,2.448-2.142,0.918-3.06c-9.486-5.508-18.36-11.016-26.622-18.054c-1.224-1.224-3.366,0.612-1.836,1.836
			c7.65,6.732,16.218,13.158,25.092,18.054c-0.918,0.306-1.224,1.224-0.612,2.142c4.284,4.284,8.874,8.262,13.77,11.628
			c0.612,0.306,1.53,1.224,2.448,2.142c0,0.612,0,0.918,0.306,1.53c0,0.306,0,0.612,0.306,0.918c-1.224-0.918-2.448-1.53-3.06-1.836
			c-3.978-2.448-7.65-4.896-11.322-7.65c-1.53-0.918-2.754,1.224-1.53,2.448c4.59,3.672,9.486,7.038,14.382,10.098
			c2.448,1.53,6.426,5.508,9.486,3.978c0.612-0.306,1.224-1.224,0.918-2.142v-0.306c-0.306-0.918-1.224-1.53-2.142-1.224l0,0
			c-0.612,0-1.53-0.612-2.754-1.224c0.918,0,1.53-0.612,2.142-1.224c0.918,0,1.53,0,2.142-0.306
			c0.612-0.612,0.918-1.224,0.918-2.142v-0.306c-0.306-0.918-0.918-1.224-1.53-1.224c0.306-1.53,0.612-3.06,0.918-4.59
			c1.836,0.306,2.754-2.448,0.918-3.366c-0.306,0-0.306-0.306-0.612-0.306c0-0.918,0.306-1.836,0.306-2.754
			c0.612-0.918,0.918-1.53,1.53-2.448c0,0,0,0,0,0.306c7.038,5.508,14.688,10.404,22.95,14.076c1.836,0.612,3.06-1.836,1.836-3.06
			c-0.612-0.612-1.53-1.224-2.142-1.836c-0.612-0.306-1.224-0.306-1.53-0.306c-6.732-3.672-13.158-7.038-19.278-11.628l0,0
			c0.306-0.306,0.306-0.612,0.612-0.918c6.426,2.754,12.852,5.814,19.584,7.956c1.836,0.612,2.754-2.142,1.224-3.06
			c-6.12-3.06-12.546-5.508-18.666-7.956c0.918-1.224,1.53-2.448,2.448-3.672c3.06,1.836,6.12,3.672,9.18,5.508
			c2.142,1.224,5.814,4.59,8.568,3.06c0.612-0.306,0.918-1.224,0.612-1.836v-0.306c0-0.612-0.918-1.224-1.53-1.224h-0.306l0,0
			c-1.224-0.612-2.754-1.53-3.978-2.448c-1.836-0.918-3.366-1.836-5.202-2.754s-3.672-1.836-5.814-3.06
			c0.306-0.612,0.612-0.918,1.224-1.53c3.978,2.448,8.262,4.59,13.158,5.202c2.142,0.306,1.836-2.754,0.306-3.366
			c-3.978-1.53-7.65-3.06-11.322-4.896c0.612-0.918,1.224-1.836,2.142-2.754c3.978,2.448,8.874,4.59,11.934,2.754
			c0.612-0.306,0.918-0.918,0.918-1.224v-0.612c0-0.918-0.918-1.53-1.836-1.224c-0.918,0.612-6.12-2.448-7.038-2.754
			c-0.306-0.306-0.612-0.612-1.224-0.612c0.612-0.612,0.918-1.224,1.53-1.836c3.06,1.53,5.814,3.06,9.18,4.284
			c1.836,0.612,2.448-1.836,1.224-2.754c-2.448-1.836-4.896-3.366-7.65-4.59c0.612-0.918,1.53-1.53,2.142-2.448
			c1.53,0.918,3.06,1.836,4.59,2.142c1.53,0.306,2.448-1.53,1.53-2.754c-0.918-0.918-2.142-1.836-3.366-2.754
			c1.53-1.53,3.366-3.06,5.202-4.59c6.732,4.59,13.771,9.18,21.42,11.322c1.836,0.306,2.754-1.836,1.224-2.754
			c-4.283-2.754-9.18-4.284-13.77-6.732c-2.142-1.224-3.978-2.448-6.12-3.672c0.918-0.612,2.143-1.53,3.061-2.142
			c3.672,2.142,7.344,4.59,11.016,6.732c2.754,1.53,6.12,3.978,8.568,1.53c0.918-0.612,0.306-2.142-0.612-2.448
			c-5.202-1.53-10.71-4.59-15.606-7.956c1.53-0.612,2.755-1.53,4.284-2.142c3.979,2.754,8.874,5.202,12.853,4.896
			c1.529,0,2.142-1.836,0.918-2.754c-2.448-1.836-5.814-2.448-8.568-3.672c3.672-0.918,7.65-1.53,11.934-1.836
			c3.979,2.142,8.263,4.284,12.24,6.12c2.448,1.224,6.426,4.59,9.486,3.672c0.612-0.306,1.224-0.612,1.224-1.224
			c0-0.306,0-0.306,0-0.612c0.307-0.612,0-1.53-0.611-1.836c0,0-0.307,0-0.307-0.306c-0.306,0-0.611,0-0.918,0
			c0-0.306-0.611-0.306-1.529-0.612c-0.919-0.612-2.143-0.918-3.061-1.53c-1.836-0.918-3.672-1.836-5.508-2.448
			c-0.612-0.306-1.225-0.612-1.836-0.918c1.53,0.306,3.366,0.612,4.896,1.224c3.061,0.918,6.427,2.142,9.486,2.754
			c0.612,0.306,1.224,0.612,1.836,0.612c-0.612,0.612-0.918,1.836,0.306,2.448c6.427,3.978,12.853,8.262,19.891,11.016
			c2.754,2.754,4.896,6.12,6.731,9.486c-1.224-0.612-2.448-1.224-3.672-1.53c-1.836-0.918-3.366,1.836-1.53,2.754
			c3.061,1.53,5.509,3.366,8.263,5.202c0.611,1.224,0.918,2.448,1.529,3.672c-2.447-1.836-4.896-3.672-7.344-5.202
			c-1.53-0.918-2.754,1.224-1.53,2.448c3.979,2.754,7.345,6.12,10.71,9.18c0.612,2.448,1.53,5.202,1.837,7.956
			c-4.591-2.754-8.874-5.508-12.853-9.18c-0.612-0.612-1.224-0.306-1.836,0c0-0.306-0.306-0.612-0.612-0.918
			c-3.978-2.754-8.874-4.284-13.157-6.426c-4.284-2.142-8.568-4.59-12.853-7.038c-1.836-1.224-3.366,1.53-1.53,2.754
			c7.65,5.202,17.442,12.24,26.929,12.852c0.306,0,0.306,0,0.611-0.306c0,0.306,0,0.612,0.307,0.612
			c4.59,4.284,9.792,8.262,15.605,11.322c0.307,2.448,0.612,4.59,0.918,7.038c-2.142-1.224-4.896-2.754-5.508-3.06
			c-3.672-2.448-7.344-4.896-11.016-7.344c-0.307-0.306-0.918-0.306-1.225-0.306c0-0.306-0.306-0.306-0.611-0.612
			c-3.672-2.142-8.263-3.06-11.935-4.896c-3.978-1.836-7.649-3.978-11.321-6.426c-1.837-1.224-3.673,1.836-1.837,3.06
			c6.427,4.59,16.219,11.016,24.48,10.71l0,0c0,0.612,0.306,0.918,0.612,1.224c5.813,4.59,11.934,8.874,18.359,12.546l0,0
			c0,1.836,0,3.978,0,6.12c-1.836-0.918-3.672-1.836-5.508-2.754c-1.224-0.612-10.404-5.508-10.098-6.732
			c0.306-1.224-0.918-1.836-1.836-1.53c0-0.306-0.307-0.612-0.612-0.612c-7.038-4.896-15.606-8.568-23.256-12.546
			c-0.918-0.612-1.53,0-2.143,0.612c0,0,0-0.306-0.306-0.306c-3.06-1.836-6.731-2.754-10.098-4.284
			c-3.672-1.836-7.038-3.978-10.099-6.426C297.28,203.884,295.444,205.72,296.668,207.25z"/>
		<path d="M344.404,198.376c-3.06-2.142-7.038-3.06-10.098-4.59c-3.672-1.836-7.038-3.978-10.404-6.732
			c-1.53-1.224-3.672,0.918-2.142,2.142c3.365,2.754,6.731,5.508,10.71,7.344c3.365,1.836,7.344,3.978,11.321,3.978
			C345.017,201.13,345.322,199.294,344.404,198.376z"/>
		<path d="M343.792,189.502c-2.754-2.754-6.426-4.59-9.485-6.426c-3.672-2.448-7.038-4.59-10.404-7.038
			c-1.53-0.918-3.06,1.224-1.836,2.448c3.06,2.448,6.426,4.896,9.792,7.344c3.366,2.142,6.731,5.202,10.404,6.426
			C343.792,192.256,344.71,190.42,343.792,189.502z"/>
	</g>
</g>
<g>
</g>
<g>
</g>
<g>
</g>
<g>
</g>
<g>
</g>
<g>
</g>
<g>
</g>
<g>
</g>
<g>
</g>
<g>
</g>
<g>
</g>
<g>
</g>
<g>
</g>
<g>
</g>
<g>
</g>
</svg>
